<?xml version="1.0" encoding="UTF-8"?>
<svg xmlns="http://www.w3.org/2000/svg" viewBox="0 0 860 560" width="860" height="560">
  <defs>
    <marker id="arrow" viewBox="0 0 10 10" refX="9" refY="5" markerWidth="7" markerHeight="7" orient="auto">
      <path d="M 0 1 L 9 5 L 0 9 z" fill="#5b9bd5"/>
    </marker>
  </defs>

  <rect width="860" height="560" fill="#ffffff" rx="6"/>

  <rect x="30" y="15" width="800" height="40" fill="#1a3a5c" rx="6"/>
  <text x="430" y="42" font-family="Arial, sans-serif" font-size="15" fill="#ffffff" text-anchor="middle" font-weight="bold">2,500 Years of Wellness · Book Architecture</text>

  <rect x="300" y="75" width="260" height="55" fill="#2d5a88" rx="6"/>
  <text x="430" y="98" font-family="Arial, sans-serif" font-size="13" fill="#ffffff" text-anchor="middle" font-weight="bold">Ch 01 The Oldest Conversation</text>
  <text x="430" y="116" font-family="Arial, sans-serif" font-size="11" fill="#f0f0f0" text-anchor="middle">Meet the Neijing, set the stage</text>

  <path d="M 430 130 L 132 168" stroke="#5b9bd5" stroke-width="2" fill="none" marker-end="url(#arrow)"/>
  <path d="M 430 130 L 332 168" stroke="#5b9bd5" stroke-width="2" fill="none" marker-end="url(#arrow)"/>
  <path d="M 430 130 L 532 168" stroke="#5b9bd5" stroke-width="2" fill="none" marker-end="url(#arrow)"/>
  <path d="M 430 130 L 732 168" stroke="#5b9bd5" stroke-width="2" fill="none" marker-end="url(#arrow)"/>

  <rect x="38" y="170" width="188" height="70" fill="#5b9bd5" rx="6"/>
  <text x="132" y="195" font-family="Arial, sans-serif" font-size="13" fill="#ffffff" text-anchor="middle" font-weight="bold">Ch 02 Living in Rhythm</text>
  <text x="132" y="214" font-family="Arial, sans-serif" font-size="11" fill="#f0f0f0" text-anchor="middle">Circadian Time</text>

  <rect x="238" y="170" width="188" height="70" fill="#5b9bd5" rx="6"/>
  <text x="332" y="195" font-family="Arial, sans-serif" font-size="13" fill="#ffffff" text-anchor="middle" font-weight="bold">Ch 03 You Are What You Eat</text>
  <text x="332" y="214" font-family="Arial, sans-serif" font-size="11" fill="#f0f0f0" text-anchor="middle">Five Flavors</text>

  <rect x="438" y="170" width="188" height="70" fill="#5b9bd5" rx="6"/>
  <text x="532" y="195" font-family="Arial, sans-serif" font-size="13" fill="#ffffff" text-anchor="middle" font-weight="bold">Ch 04 The Emotional Body</text>
  <text x="532" y="214" font-family="Arial, sans-serif" font-size="11" fill="#f0f0f0" text-anchor="middle">Psycho-neuro-immunity</text>

  <rect x="638" y="170" width="188" height="70" fill="#5b9bd5" rx="6"/>
  <text x="732" y="195" font-family="Arial, sans-serif" font-size="13" fill="#ffffff" text-anchor="middle" font-weight="bold">Ch 05 Moving Like Water</text>
  <text x="732" y="214" font-family="Arial, sans-serif" font-size="11" fill="#f0f0f0" text-anchor="middle">Gentle Flow</text>

  <path d="M 132 240 L 430 288" stroke="#5b9bd5" stroke-width="2" fill="none" marker-end="url(#arrow)"/>
  <path d="M 332 240 L 430 288" stroke="#5b9bd5" stroke-width="2" fill="none" marker-end="url(#arrow)"/>
  <path d="M 532 240 L 430 288" stroke="#5b9bd5" stroke-width="2" fill="none" marker-end="url(#arrow)"/>
  <path d="M 732 240 L 430 288" stroke="#5b9bd5" stroke-width="2" fill="none" marker-end="url(#arrow)"/>

  <rect x="38" y="290" width="784" height="50" fill="#2d5a88" rx="6"/>
  <text x="430" y="312" font-family="Arial, sans-serif" font-size="13" fill="#ffffff" text-anchor="middle" font-weight="bold">Ch 06 The Art of Not Getting Sick</text>
  <text x="430" y="330" font-family="Arial, sans-serif" font-size="11" fill="#f0f0f0" text-anchor="middle">Preventive Medicine Master Frame</text>

  <path d="M 430 340 L 275 383" stroke="#5b9bd5" stroke-width="2" fill="none" marker-end="url(#arrow)"/>
  <path d="M 430 340 L 585 383" stroke="#5b9bd5" stroke-width="2" fill="none" marker-end="url(#arrow)"/>

  <rect x="150" y="385" width="250" height="55" fill="#5b9bd5" rx="6"/>
  <text x="275" y="408" font-family="Arial, sans-serif" font-size="13" fill="#ffffff" text-anchor="middle" font-weight="bold">Ch 07 Balance, Not Perfection</text>
  <text x="275" y="426" font-family="Arial, sans-serif" font-size="11" fill="#f0f0f0" text-anchor="middle">Yin-Yang Equilibrium</text>

  <rect x="460" y="385" width="250" height="55" fill="#5b9bd5" rx="6"/>
  <text x="585" y="408" font-family="Arial, sans-serif" font-size="13" fill="#ffffff" text-anchor="middle" font-weight="bold">Ch 08 Sleep: The Great Healer</text>
  <text x="585" y="426" font-family="Arial, sans-serif" font-size="11" fill="#f0f0f0" text-anchor="middle">Repair System</text>

  <path d="M 275 440 L 430 488" stroke="#5b9bd5" stroke-width="2" fill="none" marker-end="url(#arrow)"/>
  <path d="M 585 440 L 430 488" stroke="#5b9bd5" stroke-width="2" fill="none" marker-end="url(#arrow)"/>

  <rect x="38" y="490" width="784" height="50" fill="#1a3a5c" rx="6"/>
  <text x="430" y="512" font-family="Arial, sans-serif" font-size="13" fill="#ffffff" text-anchor="middle" font-weight="bold">Ch 09 Your 90-Day Wellness Reset</text>
  <text x="430" y="530" font-family="Arial, sans-serif" font-size="11" fill="#f0f0f0" text-anchor="middle">Full Integration &amp; Action Plan</text>
</svg>
