<?xml version="1.0" encoding="UTF-8"?>
<svg xmlns="http://www.w3.org/2000/svg" viewBox="0 0 860 700" width="860" height="700">
  <defs>
    <marker id="arrow" viewBox="0 0 10 10" refX="9" refY="5" markerWidth="7" markerHeight="7" orient="auto">
      <path d="M 0 1 L 9 5 L 0 9 z" fill="#5b9bd5"/>
    </marker>
  </defs>

  <rect width="860" height="700" fill="#ffffff" rx="6"/>

  <!-- Title -->
  <rect x="30" y="15" width="800" height="40" fill="#1a3a5c" rx="6"/>
  <text x="430" y="42" font-family="Arial, sans-serif" font-size="15" fill="#ffffff" text-anchor="middle" font-weight="bold">2,500 Years of Wellness · Book Architecture</text>

  <!-- Ch01 -->
  <rect x="300" y="75" width="260" height="50" fill="#2d5a88" rx="6"/>
  <text x="430" y="96" font-family="Arial, sans-serif" font-size="13" fill="#ffffff" text-anchor="middle" font-weight="bold">Ch 01 The Oldest Conversation</text>
  <text x="430" y="113" font-family="Arial, sans-serif" font-size="11" fill="#f0f0f0" text-anchor="middle">Meet the Neijing, set the stage</text>

  <!-- Arrows: Ch01 ? Ch02-05 -->
  <path d="M 430 125 L 132 160" stroke="#5b9bd5" stroke-width="2" fill="none" marker-end="url(#arrow)"/>
  <path d="M 430 125 L 332 160" stroke="#5b9bd5" stroke-width="2" fill="none" marker-end="url(#arrow)"/>
  <path d="M 430 125 L 532 160" stroke="#5b9bd5" stroke-width="2" fill="none" marker-end="url(#arrow)"/>
  <path d="M 430 125 L 732 160" stroke="#5b9bd5" stroke-width="2" fill="none" marker-end="url(#arrow)"/>

  <!-- Ch02-05 row -->
  <rect x="38" y="162" width="188" height="60" fill="#5b9bd5" rx="6"/>
  <text x="132" y="186" font-family="Arial, sans-serif" font-size="13" fill="#ffffff" text-anchor="middle" font-weight="bold">Ch 02 Living in Rhythm</text>
  <text x="132" y="203" font-family="Arial, sans-serif" font-size="11" fill="#f0f0f0" text-anchor="middle">Circadian Time</text>

  <rect x="238" y="162" width="188" height="60" fill="#5b9bd5" rx="6"/>
  <text x="332" y="186" font-family="Arial, sans-serif" font-size="13" fill="#ffffff" text-anchor="middle" font-weight="bold">Ch 03 Food as Medicine</text>
  <text x="332" y="203" font-family="Arial, sans-serif" font-size="11" fill="#f0f0f0" text-anchor="middle">Five Flavors</text>

  <rect x="438" y="162" width="188" height="60" fill="#5b9bd5" rx="6"/>
  <text x="532" y="186" font-family="Arial, sans-serif" font-size="13" fill="#ffffff" text-anchor="middle" font-weight="bold">Ch 04 The Emotional Body</text>
  <text x="532" y="203" font-family="Arial, sans-serif" font-size="11" fill="#f0f0f0" text-anchor="middle">Psycho-neuro-immunity</text>

  <rect x="638" y="162" width="188" height="60" fill="#5b9bd5" rx="6"/>
  <text x="732" y="186" font-family="Arial, sans-serif" font-size="13" fill="#ffffff" text-anchor="middle" font-weight="bold">Ch 05 Moving Like Water</text>
  <text x="732" y="203" font-family="Arial, sans-serif" font-size="11" fill="#f0f0f0" text-anchor="middle">Gentle Flow</text>

  <!-- Arrows: Ch02-05 ? Ch06 -->
  <path d="M 132 222 L 430 268" stroke="#5b9bd5" stroke-width="2" fill="none" marker-end="url(#arrow)"/>
  <path d="M 332 222 L 430 268" stroke="#5b9bd5" stroke-width="2" fill="none" marker-end="url(#arrow)"/>
  <path d="M 532 222 L 430 268" stroke="#5b9bd5" stroke-width="2" fill="none" marker-end="url(#arrow)"/>
  <path d="M 732 222 L 430 268" stroke="#5b9bd5" stroke-width="2" fill="none" marker-end="url(#arrow)"/>

  <!-- Ch06 -->
  <rect x="38" y="270" width="784" height="45" fill="#2d5a88" rx="6"/>
  <text x="430" y="290" font-family="Arial, sans-serif" font-size="13" fill="#ffffff" text-anchor="middle" font-weight="bold">Ch 06 The Art of Not Getting Sick</text>
  <text x="430" y="306" font-family="Arial, sans-serif" font-size="11" fill="#f0f0f0" text-anchor="middle">Preventive Medicine Framework</text>

  <!-- Arrows: Ch06 ? Ch07, Ch08 -->
  <path d="M 430 315 L 275 350" stroke="#5b9bd5" stroke-width="2" fill="none" marker-end="url(#arrow)"/>
  <path d="M 430 315 L 585 350" stroke="#5b9bd5" stroke-width="2" fill="none" marker-end="url(#arrow)"/>

  <!-- Ch07, Ch08 -->
  <rect x="150" y="352" width="250" height="50" fill="#5b9bd5" rx="6"/>
  <text x="275" y="373" font-family="Arial, sans-serif" font-size="13" fill="#ffffff" text-anchor="middle" font-weight="bold">Ch 07 Balance, Not Perfection</text>
  <text x="275" y="391" font-family="Arial, sans-serif" font-size="11" fill="#f0f0f0" text-anchor="middle">Yin-Yang Equilibrium</text>

  <rect x="460" y="352" width="250" height="50" fill="#5b9bd5" rx="6"/>
  <text x="585" y="373" font-family="Arial, sans-serif" font-size="13" fill="#ffffff" text-anchor="middle" font-weight="bold">Ch 08 The Sleep Healer</text>
  <text x="585" y="391" font-family="Arial, sans-serif" font-size="11" fill="#f0f0f0" text-anchor="middle">Repair System</text>

  <!-- Arrows: Ch07, Ch08 ? Ch09 -->
  <path d="M 275 402 L 430 438" stroke="#5b9bd5" stroke-width="2" fill="none" marker-end="url(#arrow)"/>
  <path d="M 585 402 L 430 438" stroke="#5b9bd5" stroke-width="2" fill="none" marker-end="url(#arrow)"/>

  <!-- Ch09 -->
  <rect x="38" y="440" width="784" height="45" fill="#2d5a88" rx="6"/>
  <text x="430" y="460" font-family="Arial, sans-serif" font-size="13" fill="#ffffff" text-anchor="middle" font-weight="bold">Ch 09 The Invisible Network</text>
  <text x="430" y="476" font-family="Arial, sans-serif" font-size="11" fill="#f0f0f0" text-anchor="middle">Meridians &amp; Fascia</text>

  <!-- Arrows: Ch09 ? Ch10, Ch11 -->
  <path d="M 430 485 L 275 520" stroke="#5b9bd5" stroke-width="2" fill="none" marker-end="url(#arrow)"/>
  <path d="M 430 485 L 585 520" stroke="#5b9bd5" stroke-width="2" fill="none" marker-end="url(#arrow)"/>

  <!-- Ch10, Ch11 -->
  <rect x="150" y="522" width="250" height="50" fill="#5b9bd5" rx="6"/>
  <text x="275" y="543" font-family="Arial, sans-serif" font-size="13" fill="#ffffff" text-anchor="middle" font-weight="bold">Ch 10 Breath and Posture</text>
  <text x="275" y="561" font-family="Arial, sans-serif" font-size="11" fill="#f0f0f0" text-anchor="middle">Daily Actions as Practice</text>

  <rect x="460" y="522" width="250" height="50" fill="#5b9bd5" rx="6"/>
  <text x="585" y="543" font-family="Arial, sans-serif" font-size="13" fill="#ffffff" text-anchor="middle" font-weight="bold">Ch 11 When AI Meets TCM</text>
  <text x="585" y="561" font-family="Arial, sans-serif" font-size="11" fill="#f0f0f0" text-anchor="middle">Personalized Wellness with AI</text>

  <!-- Arrows: Ch10, Ch11 ? Conclusion bar -->
  <path d="M 275 572 L 430 608" stroke="#5b9bd5" stroke-width="2" fill="none" marker-end="url(#arrow)"/>
  <path d="M 585 572 L 430 608" stroke="#5b9bd5" stroke-width="2" fill="none" marker-end="url(#arrow)"/>

  <!-- Bottom bar -->
  <rect x="38" y="610" width="784" height="45" fill="#1a3a5c" rx="6"/>
  <text x="430" y="630" font-family="Arial, sans-serif" font-size="13" fill="#ffffff" text-anchor="middle" font-weight="bold">From the Yellow Emperor to AI: 2,500 Years of Wellness Wisdom</text>
  <text x="430" y="647" font-family="Arial, sans-serif" font-size="11" fill="#f0f0f0" text-anchor="middle">11 Chapters · Bilingual · Ancient Wisdom × Modern Science</text>
</svg>
