<?xml version="1.0" encoding="UTF-8"?>
<svg xmlns="http://www.w3.org/2000/svg" viewBox="0 0 860 850" width="860" height="850">
  <defs>
    <filter id="shadow">
      <feDropShadow dx="0" dy="2" stdDeviation="3" flood-opacity="0.1"/>
    </filter>
  </defs>

  <rect width="860" height="850" fill="#ffffff" rx="6"/>

  <text x="430" y="38" font-family="Arial, sans-serif" font-size="20" font-weight="bold" fill="#1a3a5c" text-anchor="middle">Daily Circadian Rhythm Schedule</text>
  <text x="430" y="58" font-family="Arial, sans-serif" font-size="12" fill="#2d5a88" text-anchor="middle">Twelve Meridian Periods · Organ Clock · Traditional &amp; Modern</text>

  <g filter="url(#shadow)">
    <path d="M388.6 295.5 L357.5 179.6 A280 280 0 0 1 502.5 179.6 L471.4 295.5 A160 160 0 0 0 388.6 295.5Z" fill="#1a3a5c"/>
    <path d="M471.4 295.5 L502.5 179.6 A280 280 0 0 1 627.9 252.1 L543.1 336.9 A160 160 0 0 0 471.4 295.5Z" fill="#1a3a5c"/>
    <path d="M543.1 336.9 L627.9 252.1 A280 280 0 0 1 700.4 377.5 L584.5 408.6 A160 160 0 0 0 543.1 336.9Z" fill="#2d5a88"/>
    <path d="M584.5 408.6 L700.4 377.5 A280 280 0 0 1 700.4 522.5 L584.5 491.4 A160 160 0 0 0 584.5 408.6Z" fill="#5b9bd5"/>
    <path d="M584.5 491.4 L700.4 522.5 A280 280 0 0 1 627.9 647.9 L543.1 563.1 A160 160 0 0 0 584.5 491.4Z" fill="#e0913a"/>
    <path d="M543.1 563.1 L627.9 647.9 A280 280 0 0 1 502.5 720.4 L471.4 604.5 A160 160 0 0 0 543.1 563.1Z" fill="#5b9bd5"/>
    <path d="M471.4 604.5 L502.5 720.4 A280 280 0 0 1 357.5 720.4 L388.6 604.5 A160 160 0 0 0 471.4 604.5Z" fill="#4a9e6b"/>
    <path d="M388.6 604.5 L357.5 720.4 A280 280 0 0 1 232.1 647.9 L316.9 563.1 A160 160 0 0 0 388.6 604.5Z" fill="#5b9bd5"/>
    <path d="M316.9 563.1 L232.1 647.9 A280 280 0 0 1 159.6 522.5 L275.5 491.4 A160 160 0 0 0 316.9 563.1Z" fill="#c75b3a"/>
    <path d="M275.5 491.4 L159.6 522.5 A280 280 0 0 1 159.6 377.5 L275.5 408.6 A160 160 0 0 0 275.5 491.4Z" fill="#e0913a"/>
    <path d="M275.5 408.6 L159.6 377.5 A280 280 0 0 1 232.1 252.1 L316.9 336.9 A160 160 0 0 0 275.5 408.6Z" fill="#7b5ea7"/>
    <path d="M316.9 336.9 L232.1 252.1 A280 280 0 0 1 357.5 179.6 L388.6 295.5 A160 160 0 0 0 316.9 336.9Z" fill="#2d5a88"/>
  </g>

  <g stroke="#ffffff" stroke-width="1.5" opacity="0.8">
    <line x1="388.6" y1="295.5" x2="357.5" y2="179.6"/>
    <line x1="471.4" y1="295.5" x2="502.5" y2="179.6"/>
    <line x1="543.1" y1="336.9" x2="627.9" y2="252.1"/>
    <line x1="584.5" y1="408.6" x2="700.4" y2="377.5"/>
    <line x1="584.5" y1="491.4" x2="700.4" y2="522.5"/>
    <line x1="543.1" y1="563.1" x2="627.9" y2="647.9"/>
    <line x1="471.4" y1="604.5" x2="502.5" y2="720.4"/>
    <line x1="388.6" y1="604.5" x2="357.5" y2="720.4"/>
    <line x1="316.9" y1="563.1" x2="232.1" y2="647.9"/>
    <line x1="275.5" y1="491.4" x2="159.6" y2="522.5"/>
    <line x1="275.5" y1="408.6" x2="159.6" y2="377.5"/>
    <line x1="316.9" y1="336.9" x2="232.1" y2="252.1"/>
  </g>

  <circle cx="430" cy="450" r="280" fill="none" stroke="#1a3a5c" stroke-width="1.5"/>
  <circle cx="430" cy="450" r="160" fill="none" stroke="#1a3a5c" stroke-width="1.5"/>

  <circle cx="430" cy="450" r="145" fill="#f0f0f0" stroke="#1a3a5c" stroke-width="1"/>
  <text x="430" y="440" font-family="Arial, sans-serif" font-size="20" font-weight="bold" fill="#1a3a5c" text-anchor="middle">Organ Clock</text>
  <text x="430" y="464" font-family="Arial, sans-serif" font-size="12" fill="#2d5a88" text-anchor="middle">Meridian Flow Guide</text>

  <g font-family="Arial, sans-serif" font-size="12" fill="#ffffff" text-anchor="middle">
    <text x="430" y="218" font-weight="bold">Gallbladder</text>
    <text x="430" y="233">Deep Sleep</text>
    <text x="542.5" y="248" font-weight="bold">Liver</text>
    <text x="542.5" y="263">Repair</text>
    <text x="625" y="330" font-weight="bold">Lung</text>
    <text x="625" y="345">Awakening</text>
    <text x="655" y="443" font-weight="bold">L. Intestine</text>
    <text x="655" y="458">Eliminate</text>
    <text x="625" y="555" font-weight="bold">Stomach</text>
    <text x="625" y="570">Breakfast</text>
    <text x="542.5" y="637" font-weight="bold">Spleen</text>
    <text x="542.5" y="652">Deep Work</text>
    <text x="430" y="668" font-weight="bold">Heart</text>
    <text x="430" y="683">Nap</text>
    <text x="317.5" y="637" font-weight="bold">S. Intestine</text>
    <text x="317.5" y="652">Absorb</text>
    <text x="235" y="555" font-weight="bold">Bladder</text>
    <text x="235" y="570">Exercise</text>
    <text x="205" y="443" font-weight="bold">Kidney</text>
    <text x="205" y="458">Light Dinner</text>
    <text x="235" y="330" font-weight="bold">Pericardium</text>
    <text x="235" y="345">Unwind</text>
    <text x="317.5" y="248" font-weight="bold">Triple Burner</text>
    <text x="317.5" y="263">Wind Down</text>
  </g>

  <g font-family="Arial, sans-serif" font-size="11" fill="#1a3a5c" text-anchor="middle" font-weight="bold">
    <text x="430" y="128">11 PM1 AM</text>
    <text x="590" y="171">13 AM</text>
    <text x="708" y="288">35 AM</text>
    <text x="752" y="450">57 AM</text>
    <text x="708" y="612">79 AM</text>
    <text x="590" y="729">911 AM</text>
    <text x="430" y="772">11 AM1 PM</text>
    <text x="270" y="729">13 PM</text>
    <text x="152" y="612">35 PM</text>
    <text x="108" y="450">57 PM</text>
    <text x="152" y="288">79 PM</text>
    <text x="270" y="171">911 PM</text>
  </g>

  <g font-family="Arial, sans-serif" font-size="10" fill="#666666" text-anchor="middle">
    <text x="430" y="810">Figure 2-1: Daily Circadian Rhythm Schedule</text>
    <text x="430" y="824">Based on Huangdi Neijing Meridian Clock and modern chronobiology</text>
  </g>
</svg>
