<?xml version="1.0" encoding="UTF-8"?>
<svg xmlns="http://www.w3.org/2000/svg" viewBox="0 0 860 440" width="860" height="440">
  <defs>
    <marker id="arrow" viewBox="0 0 10 6" refX="9" refY="3" markerWidth="8" markerHeight="6" orient="auto">
      <path d="M0,0 L10,3 L0,6 Z" fill="#2d5a88"/>
    </marker>
  </defs>

  <rect x="305" y="20" width="250" height="64" rx="6" fill="#1a3a5c"/>
  <text x="430" y="48" text-anchor="middle" fill="#fff" font-family="Arial, sans-serif" font-size="16" font-weight="bold">&#9775; &#38452;&#38451;&#24179;&#34913;</text>
  <text x="430" y="70" text-anchor="middle" fill="#b0c4de" font-family="Arial, sans-serif" font-size="12">&#20803;&#21407;&#21017;</text>

  <rect x="30" y="170" width="130" height="80" rx="6" fill="#2d5a88"/>
  <text x="95" y="203" text-anchor="middle" fill="#fff" font-family="Arial, sans-serif" font-size="15" font-weight="bold">&#39034;&#26102;</text>
  <text x="95" y="228" text-anchor="middle" fill="#d0dde8" font-family="Arial, sans-serif" font-size="12">&#26172;&#22812;&#33410;&#24459;</text>

  <rect x="195" y="170" width="130" height="80" rx="6" fill="#2d5a88"/>
  <text x="260" y="203" text-anchor="middle" fill="#fff" font-family="Arial, sans-serif" font-size="15" font-weight="bold">&#39135;&#20859;</text>
  <text x="260" y="228" text-anchor="middle" fill="#d0dde8" font-family="Arial, sans-serif" font-size="12">&#20116;&#21619;&#35843;&#21644;</text>

  <rect x="365" y="170" width="130" height="80" rx="6" fill="#1a3a5c" stroke="#5b9bd5" stroke-width="2"/>
  <text x="430" y="203" text-anchor="middle" fill="#fff" font-family="Arial, sans-serif" font-size="15" font-weight="bold">&#30561;&#30496;</text>
  <text x="430" y="228" text-anchor="middle" fill="#d0dde8" font-family="Arial, sans-serif" font-size="12">&#20462;&#22797;&#26530;&#32445;</text>

  <rect x="535" y="170" width="130" height="80" rx="6" fill="#2d5a88"/>
  <text x="600" y="203" text-anchor="middle" fill="#fff" font-family="Arial, sans-serif" font-size="15" font-weight="bold">&#24773;&#24535;</text>
  <text x="600" y="228" text-anchor="middle" fill="#d0dde8" font-family="Arial, sans-serif" font-size="12">&#27668;&#26426;&#35843;&#33410;</text>

  <rect x="700" y="170" width="130" height="80" rx="6" fill="#2d5a88"/>
  <text x="765" y="203" text-anchor="middle" fill="#fff" font-family="Arial, sans-serif" font-size="15" font-weight="bold">&#21160;&#24418;</text>
  <text x="765" y="228" text-anchor="middle" fill="#d0dde8" font-family="Arial, sans-serif" font-size="12">&#26580;&#24615;&#36816;&#21160;</text>

  <rect x="305" y="340" width="250" height="64" rx="6" fill="#5b9bd5"/>
  <text x="430" y="368" text-anchor="middle" fill="#1a3a5c" font-family="Arial, sans-serif" font-size="16" font-weight="bold">&#27835;&#26410;&#30149;</text>
  <text x="430" y="390" text-anchor="middle" fill="#1a3a5c" font-family="Arial, sans-serif" font-size="12">&#39044;&#38450;&#21307;&#23398;</text>

  <line x1="370" y1="84" x2="95" y2="167" stroke="#2d5a88" stroke-width="1.5" marker-end="url(#arrow)"/>
  <line x1="400" y1="84" x2="260" y2="167" stroke="#2d5a88" stroke-width="1.5" marker-end="url(#arrow)"/>
  <line x1="430" y1="84" x2="430" y2="167" stroke="#2d5a88" stroke-width="1.5" marker-end="url(#arrow)"/>
  <line x1="460" y1="84" x2="600" y2="167" stroke="#2d5a88" stroke-width="1.5" marker-end="url(#arrow)"/>
  <line x1="490" y1="84" x2="765" y2="167" stroke="#2d5a88" stroke-width="1.5" marker-end="url(#arrow)"/>

  <line x1="95" y1="253" x2="370" y2="337" stroke="#2d5a88" stroke-width="1.5" marker-end="url(#arrow)"/>
  <line x1="260" y1="253" x2="400" y2="337" stroke="#2d5a88" stroke-width="1.5" marker-end="url(#arrow)"/>
  <line x1="430" y1="253" x2="430" y2="337" stroke="#2d5a88" stroke-width="1.5" marker-end="url(#arrow)"/>
  <line x1="600" y1="253" x2="460" y2="337" stroke="#2d5a88" stroke-width="1.5" marker-end="url(#arrow)"/>
  <line x1="765" y1="253" x2="490" y2="337" stroke="#2d5a88" stroke-width="1.5" marker-end="url(#arrow)"/>
</svg>
