<?xml version="1.0" encoding="UTF-8"?>
<svg xmlns="http://www.w3.org/2000/svg" viewBox="0 0 860 440" width="860" height="440">
  <defs>
    <marker id="arrow" viewBox="0 0 10 6" refX="9" refY="3" markerWidth="8" markerHeight="6" orient="auto">
      <path d="M0,0 L10,3 L0,6 Z" fill="#2d5a88"/>
    </marker>
  </defs>

  <rect x="305" y="20" width="250" height="64" rx="6" fill="#1a3a5c"/>
  <text x="430" y="48" text-anchor="middle" fill="#fff" font-family="Arial, sans-serif" font-size="16" font-weight="bold">&#x262F; Yin-Yang Balance</text>
  <text x="430" y="70" text-anchor="middle" fill="#b0c4de" font-family="Arial, sans-serif" font-size="12">The meta-principle</text>

  <rect x="30" y="170" width="130" height="80" rx="6" fill="#2d5a88"/>
  <text x="95" y="203" text-anchor="middle" fill="#fff" font-family="Arial, sans-serif" font-size="15" font-weight="bold">Rhythm</text>
  <text x="95" y="228" text-anchor="middle" fill="#d0dde8" font-family="Arial, sans-serif" font-size="12">Circadian</text>

  <rect x="195" y="170" width="130" height="80" rx="6" fill="#2d5a88"/>
  <text x="260" y="203" text-anchor="middle" fill="#fff" font-family="Arial, sans-serif" font-size="15" font-weight="bold">Nourishment</text>
  <text x="260" y="228" text-anchor="middle" fill="#d0dde8" font-family="Arial, sans-serif" font-size="12">Five flavors</text>

  <rect x="365" y="170" width="130" height="80" rx="6" fill="#1a3a5c" stroke="#5b9bd5" stroke-width="2"/>
  <text x="430" y="203" text-anchor="middle" fill="#fff" font-family="Arial, sans-serif" font-size="15" font-weight="bold">Sleep</text>
  <text x="430" y="228" text-anchor="middle" fill="#d0dde8" font-family="Arial, sans-serif" font-size="12">Recovery hub</text>

  <rect x="535" y="170" width="130" height="80" rx="6" fill="#2d5a88"/>
  <text x="600" y="203" text-anchor="middle" fill="#fff" font-family="Arial, sans-serif" font-size="15" font-weight="bold">Emotions</text>
  <text x="600" y="228" text-anchor="middle" fill="#d0dde8" font-family="Arial, sans-serif" font-size="12">Qi regulation</text>

  <rect x="700" y="170" width="130" height="80" rx="6" fill="#2d5a88"/>
  <text x="765" y="203" text-anchor="middle" fill="#fff" font-family="Arial, sans-serif" font-size="15" font-weight="bold">Movement</text>
  <text x="765" y="228" text-anchor="middle" fill="#d0dde8" font-family="Arial, sans-serif" font-size="12">Flowing exercise</text>

  <rect x="305" y="340" width="250" height="64" rx="6" fill="#5b9bd5"/>
  <text x="430" y="368" text-anchor="middle" fill="#1a3a5c" font-family="Arial, sans-serif" font-size="16" font-weight="bold">Prevention</text>
  <text x="430" y="390" text-anchor="middle" fill="#1a3a5c" font-family="Arial, sans-serif" font-size="12">Preventive Medicine</text>

  <line x1="370" y1="84" x2="95" y2="167" stroke="#2d5a88" stroke-width="1.5" marker-end="url(#arrow)"/>
  <line x1="400" y1="84" x2="260" y2="167" stroke="#2d5a88" stroke-width="1.5" marker-end="url(#arrow)"/>
  <line x1="430" y1="84" x2="430" y2="167" stroke="#2d5a88" stroke-width="1.5" marker-end="url(#arrow)"/>
  <line x1="460" y1="84" x2="600" y2="167" stroke="#2d5a88" stroke-width="1.5" marker-end="url(#arrow)"/>
  <line x1="490" y1="84" x2="765" y2="167" stroke="#2d5a88" stroke-width="1.5" marker-end="url(#arrow)"/>

  <line x1="95" y1="253" x2="370" y2="337" stroke="#2d5a88" stroke-width="1.5" marker-end="url(#arrow)"/>
  <line x1="260" y1="253" x2="400" y2="337" stroke="#2d5a88" stroke-width="1.5" marker-end="url(#arrow)"/>
  <line x1="430" y1="253" x2="430" y2="337" stroke="#2d5a88" stroke-width="1.5" marker-end="url(#arrow)"/>
  <line x1="600" y1="253" x2="460" y2="337" stroke="#2d5a88" stroke-width="1.5" marker-end="url(#arrow)"/>
  <line x1="765" y1="253" x2="490" y2="337" stroke="#2d5a88" stroke-width="1.5" marker-end="url(#arrow)"/>
</svg>
